<svg id="my-svg" width="100%" xmlns="http://www.w3.org/2000/svg" xmlns:xlink="http://www.w3.org/1999/xlink" class="classDiagram" style="max-width: 2033.41px; background-color: transparent;" viewBox="0 0 2033.4140625 542" role="graphics-document document" aria-roledescription="class"><style>#my-svg{font-size:16px;fill:#102033;}@keyframes edge-animation-frame{from{stroke-dashoffset:0;}}@keyframes dash{to{stroke-dashoffset:0;}}#my-svg .edge-animation-slow{stroke-dasharray:9,5!important;stroke-dashoffset:900;animation:dash 50s linear infinite;stroke-linecap:round;}#my-svg .edge-animation-fast{stroke-dasharray:9,5!important;stroke-dashoffset:900;animation:dash 20s linear infinite;stroke-linecap:round;}#my-svg .error-icon{fill:#FFF3D9;}#my-svg .error-text{fill:#102033;stroke:#102033;}#my-svg .edge-thickness-normal{stroke-width:1px;}#my-svg .edge-thickness-thick{stroke-width:3.5px;}#my-svg .edge-pattern-solid{stroke-dasharray:0;}#my-svg .edge-thickness-invisible{stroke-width:0;fill:none;}#my-svg .edge-pattern-dashed{stroke-dasharray:3;}#my-svg .edge-pattern-dotted{stroke-dasharray:2;}#my-svg .marker{fill:#7A8794;stroke:#7A8794;}#my-svg .marker.cross{stroke:#7A8794;}#my-svg svg{font-size:16px;}#my-svg p{margin:0;}#my-svg g.classGroup text{fill:#5B8DEF;stroke:none;font-size:10px;}#my-svg g.classGroup text .title{font-weight:bolder;}#my-svg .cluster-label text{fill:#102033;}#my-svg .cluster-label span{color:#102033;}#my-svg .cluster-label span p{background-color:transparent;}#my-svg .cluster rect{fill:#F8FAFC;stroke:#CBD5E1;stroke-width:1px;}#my-svg .cluster text{fill:#102033;}#my-svg .cluster span{color:#102033;}#my-svg .nodeLabel,#my-svg .edgeLabel{color:#102033;}#my-svg .noteLabel .nodeLabel,#my-svg .noteLabel .edgeLabel{color:#333;}#my-svg .edgeLabel .label rect{fill:#E8F3FF;}#my-svg .label text{fill:#102033;}#my-svg .labelBkg{background:#E8F3FF;}#my-svg .edgeLabel .label span{background:#E8F3FF;}#my-svg .classTitle{font-weight:bolder;}#my-svg .node rect,#my-svg .node circle,#my-svg .node ellipse,#my-svg .node polygon,#my-svg .node path{fill:#E8F3FF;stroke:#5B8DEF;stroke-width:1;}#my-svg .divider{stroke:#5B8DEF;stroke-width:1;}#my-svg g.clickable{cursor:pointer;}#my-svg g.classGroup rect{fill:#E8F3FF;stroke:#5B8DEF;}#my-svg g.classGroup line{stroke:#5B8DEF;stroke-width:1;}#my-svg .classLabel .box{stroke:none;stroke-width:0;fill:#E8F3FF;opacity:0.5;}#my-svg .classLabel .label{fill:#5B8DEF;font-size:10px;}#my-svg .relation{stroke:#7A8794;stroke-width:1;fill:none;}#my-svg .dashed-line{stroke-dasharray:3;}#my-svg .dotted-line{stroke-dasharray:1 2;}#my-svg [id$="-compositionStart"],#my-svg .composition{fill:#7A8794!important;stroke:#7A8794!important;stroke-width:1;}#my-svg [id$="-compositionEnd"],#my-svg .composition{fill:#7A8794!important;stroke:#7A8794!important;stroke-width:1;}#my-svg [id$="-dependencyStart"],#my-svg .dependency{fill:#7A8794!important;stroke:#7A8794!important;stroke-width:1;}#my-svg [id$="-dependencyEnd"],#my-svg .dependency{fill:#7A8794!important;stroke:#7A8794!important;stroke-width:1;}#my-svg [id$="-extensionStart"],#my-svg .extension{fill:transparent!important;stroke:#7A8794!important;stroke-width:1;}#my-svg [id$="-extensionEnd"],#my-svg .extension{fill:transparent!important;stroke:#7A8794!important;stroke-width:1;}#my-svg [id$="-aggregationStart"],#my-svg .aggregation{fill:transparent!important;stroke:#7A8794!important;stroke-width:1;}#my-svg [id$="-aggregationEnd"],#my-svg .aggregation{fill:transparent!important;stroke:#7A8794!important;stroke-width:1;}#my-svg [id$="-lollipopStart"],#my-svg .lollipop{fill:#E8F3FF!important;stroke:#7A8794!important;stroke-width:1;}#my-svg [id$="-lollipopEnd"],#my-svg .lollipop{fill:#E8F3FF!important;stroke:#7A8794!important;stroke-width:1;}#my-svg .edgeTerminals{font-size:11px;line-height:initial;}#my-svg .classTitleText{text-anchor:middle;font-size:18px;fill:#102033;}#my-svg .edgeLabel[data-look="neo"]{background-color:#FFFFFF;text-align:center;}#my-svg .edgeLabel[data-look="neo"] p{background-color:#FFFFFF;}#my-svg .edgeLabel[data-look="neo"] rect{opacity:0.5;background-color:#FFFFFF;fill:#FFFFFF;}#my-svg .label-icon{display:inline-block;height:1em;overflow:visible;vertical-align:-0.125em;}#my-svg .node .label-icon path{fill:currentColor;stroke:revert;stroke-width:revert;}#my-svg .node .neo-node{stroke:#5B8DEF;}#my-svg [data-look="neo"].node rect,#my-svg [data-look="neo"].cluster rect,#my-svg [data-look="neo"].node polygon{stroke:url(#my-svg-gradient);filter:drop-shadow( 1px 2px 2px rgba(185,185,185,1));}#my-svg [data-look="neo"].node path{stroke:url(#my-svg-gradient);stroke-width:1px;}#my-svg [data-look="neo"].node .outer-path{filter:drop-shadow( 1px 2px 2px rgba(185,185,185,1));}#my-svg [data-look="neo"].node .neo-line path{stroke:#5B8DEF;filter:none;}#my-svg [data-look="neo"].node circle{stroke:url(#my-svg-gradient);filter:drop-shadow( 1px 2px 2px rgba(185,185,185,1));}#my-svg [data-look="neo"].node circle .state-start{fill:#000000;}#my-svg [data-look="neo"].icon-shape .icon{fill:url(#my-svg-gradient);filter:drop-shadow( 1px 2px 2px rgba(185,185,185,1));}#my-svg [data-look="neo"].icon-shape .icon-neo path{stroke:url(#my-svg-gradient);filter:drop-shadow( 1px 2px 2px rgba(185,185,185,1));}#my-svg :root{--mermaid-font-family:"trebuchet ms",verdana,arial,sans-serif;}#my-svg .CoroutineDispatcher&gt;*{fill:rgb(234, 247, 239)!important;stroke:rgb(88, 169, 120)!important;color:rgb(16, 32, 51)!important;stroke-width:1.5px!important;}#my-svg .CoroutineDispatcher span{fill:rgb(234, 247, 239)!important;stroke:rgb(88, 169, 120)!important;color:rgb(16, 32, 51)!important;stroke-width:1.5px!important;}#my-svg .VirtualThreadDispatcher&gt;*{fill:rgb(243, 238, 255)!important;stroke:rgb(139, 117, 215)!important;color:rgb(16, 32, 51)!important;stroke-width:1.5px!important;}#my-svg .VirtualThreadDispatcher span{fill:rgb(243, 238, 255)!important;stroke:rgb(139, 117, 215)!important;color:rgb(16, 32, 51)!important;stroke-width:1.5px!important;}#my-svg .R2dbcTransaction&gt;*{fill:rgb(232, 243, 255)!important;stroke:rgb(91, 141, 239)!important;color:rgb(16, 32, 51)!important;stroke-width:1.5px!important;}#my-svg .R2dbcTransaction span{fill:rgb(232, 243, 255)!important;stroke:rgb(91, 141, 239)!important;color:rgb(16, 32, 51)!important;stroke-width:1.5px!important;}#my-svg .InTopLevelSuspendTransaction&gt;*{fill:rgb(232, 243, 255)!important;stroke:rgb(91, 141, 239)!important;color:rgb(16, 32, 51)!important;stroke-width:1.5px!important;}#my-svg .InTopLevelSuspendTransaction span{fill:rgb(232, 243, 255)!important;stroke:rgb(91, 141, 239)!important;color:rgb(16, 32, 51)!important;stroke-width:1.5px!important;}#my-svg .RunSuspendVT&gt;*{fill:rgb(255, 240, 230)!important;stroke:rgb(224, 138, 74)!important;color:rgb(16, 32, 51)!important;stroke-width:1.5px!important;}#my-svg .RunSuspendVT span{fill:rgb(255, 240, 230)!important;stroke:rgb(224, 138, 74)!important;color:rgb(16, 32, 51)!important;stroke-width:1.5px!important;}</style><g><defs><marker id="my-svg_class-aggregationStart" class="marker aggregation class" refX="18" refY="7" markerWidth="190" markerHeight="240" orient="auto"><path d="M 18,7 L9,13 L1,7 L9,1 Z"/></marker></defs><defs><marker id="my-svg_class-aggregationEnd" class="marker aggregation class" refX="1" refY="7" markerWidth="20" markerHeight="28" orient="auto"><path d="M 18,7 L9,13 L1,7 L9,1 Z"/></marker></defs><defs><marker id="my-svg_class-aggregationStart-margin" class="marker aggregation class" refX="15" refY="7" markerWidth="190" markerHeight="240" orient="auto" markerUnits="userSpaceOnUse"><path d="M 18,7 L9,13 L1,7 L9,1 Z" style="stroke-width: 2;"/></marker></defs><defs><marker id="my-svg_class-aggregationEnd-margin" class="marker aggregation class" refX="1" refY="7" markerWidth="20" markerHeight="28" orient="auto" markerUnits="userSpaceOnUse"><path d="M 18,7 L9,13 L1,7 L9,1 Z" style="stroke-width: 2;"/></marker></defs><defs><marker id="my-svg_class-extensionStart" class="marker extension class" refX="18" refY="7" markerWidth="20" markerHeight="28" orient="auto" markerUnits="userSpaceOnUse"><path d="M 1,7 L18,13 V 1 Z"/></marker></defs><defs><marker id="my-svg_class-extensionEnd" class="marker extension class" refX="1" refY="7" markerWidth="20" markerHeight="28" orient="auto"><path d="M 1,1 V 13 L18,7 Z"/></marker></defs><marker id="my-svg_class-extensionStart-margin" class="marker extension class" refX="18" refY="7" markerWidth="20" markerHeight="28" orient="auto" markerUnits="userSpaceOnUse" viewBox="0 0 20 14"><polygon points="10,7 18,13 18,1" style="stroke-width: 2; stroke-dasharray: 0;"/></marker><defs><marker id="my-svg_class-extensionEnd-margin" class="marker extension class" refX="9" refY="7" markerWidth="20" markerHeight="28" orient="auto" markerUnits="userSpaceOnUse" viewBox="0 0 20 14"><polygon points="10,1 10,13 18,7" style="stroke-width: 2; stroke-dasharray: 0;"/></marker></defs><defs><marker id="my-svg_class-compositionStart" class="marker composition class" refX="18" refY="7" markerWidth="190" markerHeight="240" orient="auto"><path d="M 18,7 L9,13 L1,7 L9,1 Z"/></marker></defs><defs><marker id="my-svg_class-compositionEnd" class="marker composition class" refX="1" refY="7" markerWidth="20" markerHeight="28" orient="auto"><path d="M 18,7 L9,13 L1,7 L9,1 Z"/></marker></defs><defs><marker id="my-svg_class-compositionStart-margin" class="marker composition class" refX="15" refY="7" markerWidth="190" markerHeight="240" orient="auto" markerUnits="userSpaceOnUse"><path viewBox="0 0 15 15" d="M 18,7 L9,13 L1,7 L9,1 Z" style="stroke-width: 0;"/></marker></defs><defs><marker id="my-svg_class-compositionEnd-margin" class="marker composition class" refX="3.5" refY="7" markerWidth="20" markerHeight="28" orient="auto" markerUnits="userSpaceOnUse"><path d="M 18,7 L9,13 L1,7 L9,1 Z" style="stroke-width: 0;"/></marker></defs><defs><marker id="my-svg_class-dependencyStart" class="marker dependency class" refX="6" refY="7" markerWidth="190" markerHeight="240" orient="auto"><path d="M 5,7 L9,13 L1,7 L9,1 Z"/></marker></defs><defs><marker id="my-svg_class-dependencyEnd" class="marker dependency class" refX="13" refY="7" markerWidth="20" markerHeight="28" orient="auto"><path d="M 18,7 L9,13 L14,7 L9,1 Z"/></marker></defs><defs><marker id="my-svg_class-dependencyStart-margin" class="marker dependency class" refX="4" refY="7" markerWidth="190" markerHeight="240" orient="auto" markerUnits="userSpaceOnUse"><path d="M 5,7 L9,13 L1,7 L9,1 Z" style="stroke-width: 0;"/></marker></defs><defs><marker id="my-svg_class-dependencyEnd-margin" class="marker dependency class" refX="16" refY="7" markerWidth="20" markerHeight="28" orient="auto" markerUnits="userSpaceOnUse"><path d="M 18,7 L9,13 L14,7 L9,1 Z" style="stroke-width: 0;"/></marker></defs><defs><marker id="my-svg_class-lollipopStart" class="marker lollipop class" refX="13" refY="7" markerWidth="190" markerHeight="240" orient="auto"><circle fill="transparent" cx="7" cy="7" r="6"/></marker></defs><defs><marker id="my-svg_class-lollipopEnd" class="marker lollipop class" refX="1" refY="7" markerWidth="190" markerHeight="240" orient="auto"><circle fill="transparent" cx="7" cy="7" r="6"/></marker></defs><defs><marker id="my-svg_class-lollipopStart-margin" class="marker lollipop class" refX="13" refY="7" markerWidth="190" markerHeight="240" orient="auto" markerUnits="userSpaceOnUse"><circle fill="transparent" cx="7" cy="7" r="6" stroke-width="2"/></marker></defs><defs><marker id="my-svg_class-lollipopEnd-margin" class="marker lollipop class" refX="1" refY="7" markerWidth="190" markerHeight="240" orient="auto" markerUnits="userSpaceOnUse"><circle fill="transparent" cx="7" cy="7" r="6" stroke-width="2"/></marker></defs><g class="root"><g class="clusters"/><g class="edgePaths"><path d="M254.547,208L254.547,227.167C254.547,246.333,254.547,284.667,358.262,320.009C461.977,355.351,669.406,387.702,773.121,403.878L876.836,420.053" id="my-svg-edgeNote0" class="edge-thickness-normal edge-pattern-dotted relation" style="fill: none;;;fill: none" data-edge="true" data-et="edge" data-id="edgeNote0" data-points="W3sieCI6MjU0LjU0Njg3NSwieSI6MjA4fSx7IngiOjI1NC41NDY4NzUsInkiOjMyM30seyJ4Ijo4NzYuODM1OTM3NSwieSI6NDIwLjA1MzMzMTgyNjY0NTh9XQ==" data-look="classic"/><path d="M1838.391,44L1838.391,48.167C1838.391,52.333,1838.391,60.667,1838.391,72.5C1838.391,84.333,1838.391,99.667,1838.391,107.333L1838.391,115" id="my-svg-edgeNote1" class="edge-thickness-normal edge-pattern-dotted relation" style="fill: none;;;fill: none" data-edge="true" data-et="edge" data-id="edgeNote1" data-points="W3sieCI6MTgzOC4zOTA2MjUsInkiOjQ0fSx7IngiOjE4MzguMzkwNjI1LCJ5Ijo2OX0seyJ4IjoxODM4LjM5MDYyNSwieSI6MTE1fV0=" data-look="classic"/><path d="M693.547,282.25L693.547,289.042C693.547,295.833,693.547,309.417,724.095,326.847C754.643,344.277,815.74,365.554,846.288,376.192L876.836,386.83" id="my-svg-id_CoroutineDispatcher_VirtualThreadDispatcher_1" class="edge-thickness-normal edge-pattern-solid relation" style=";;;" data-edge="true" data-et="edge" data-id="id_CoroutineDispatcher_VirtualThreadDispatcher_1" data-points="W3sieCI6NjkzLjU0Njg3NSwieSI6MjY1fSx7IngiOjY5My41NDY4NzUsInkiOjMyM30seyJ4Ijo4NzYuODM1OTM3NSwieSI6Mzg2LjgzMDM1MTE2NzgxNjczfV0=" data-look="classic" marker-start="url(#my-svg_class-extensionStart)"/><path d="M1049.613,262L1049.613,272.167C1049.613,282.333,1049.613,302.667,1049.613,318C1049.613,333.333,1049.613,343.667,1049.613,348.833L1049.613,354" id="my-svg-id_R2dbcTransaction_VirtualThreadDispatcher_2" class="edge-thickness-normal edge-pattern-solid relation" style=";;;" data-edge="true" data-et="edge" data-id="id_R2dbcTransaction_VirtualThreadDispatcher_2" data-points="W3sieCI6MTA0OS42MTMyODEyNSwieSI6MjYyfSx7IngiOjEwNDkuNjEzMjgxMjUsInkiOjMyM30seyJ4IjoxMDQ5LjYxMzI4MTI1LCJ5IjozNjB9XQ==" data-look="classic" marker-end="url(#my-svg_class-dependencyEnd)"/><path d="M1459.102,286L1459.102,292.167C1459.102,298.333,1459.102,310.667,1420.607,328.49C1382.112,346.314,1305.123,369.627,1266.628,381.284L1228.133,392.941" id="my-svg-id_InTopLevelSuspendTransaction_VirtualThreadDispatcher_3" class="edge-thickness-normal edge-pattern-solid relation" style=";;;" data-edge="true" data-et="edge" data-id="id_InTopLevelSuspendTransaction_VirtualThreadDispatcher_3" data-points="W3sieCI6MTQ1OS4xMDE1NjI1LCJ5IjoyODZ9LHsieCI6MTQ1OS4xMDE1NjI1LCJ5IjozMjN9LHsieCI6MTIyMi4zOTA2MjUsInkiOjM5NC42ODAwODg1MjUxMjE4NX1d" data-look="classic" marker-end="url(#my-svg_class-dependencyEnd)"/><path d="M1838.391,265L1838.391,274.667C1838.391,284.333,1838.391,303.667,1736.712,329.318C1635.033,354.969,1431.675,386.938,1329.997,402.922L1228.318,418.907" id="my-svg-id_RunSuspendVT_VirtualThreadDispatcher_4" class="edge-thickness-normal edge-pattern-solid relation" style=";;;" data-edge="true" data-et="edge" data-id="id_RunSuspendVT_VirtualThreadDispatcher_4" data-points="W3sieCI6MTgzOC4zOTA2MjUsInkiOjI2NX0seyJ4IjoxODM4LjM5MDYyNSwieSI6MzIzfSx7IngiOjEyMjIuMzkwNjI1LCJ5Ijo0MTkuODM4NDgxMjMzMzE3fV0=" data-look="classic" marker-end="url(#my-svg_class-dependencyEnd)"/></g><g class="edgeLabels"><g class="edgeLabel"><g class="label" data-id="edgeNote0" transform="translate(0, 0)"><foreignObject width="0" height="0"><div xmlns="http://www.w3.org/1999/xhtml" class="labelBkg" style="display: table-cell; white-space: nowrap; line-height: 1.5; max-width: 200px; text-align: center;"><span class="edgeLabel"></span></div></foreignObject></g></g><g class="edgeLabel"><g class="label" data-id="edgeNote1" transform="translate(0, 0)"><foreignObject width="0" height="0"><div xmlns="http://www.w3.org/1999/xhtml" class="labelBkg" style="display: table-cell; white-space: nowrap; line-height: 1.5; max-width: 200px; text-align: center;"><span class="edgeLabel"></span></div></foreignObject></g></g><g class="edgeLabel"><g class="label" data-id="id_CoroutineDispatcher_VirtualThreadDispatcher_1" transform="translate(0, 0)"><foreignObject width="0" height="0"><div xmlns="http://www.w3.org/1999/xhtml" class="labelBkg" style="display: table-cell; white-space: nowrap; line-height: 1.5; max-width: 200px; text-align: center;"><span class="edgeLabel"></span></div></foreignObject></g></g><g class="edgeLabel" transform="translate(1049.61328125, 323)"><g class="label" data-id="id_R2dbcTransaction_VirtualThreadDispatcher_2" transform="translate(-15.2109375, -12)"><foreignObject width="30.421875" height="24"><div xmlns="http://www.w3.org/1999/xhtml" class="labelBkg" style="display: table-cell; white-space: nowrap; line-height: 1.5; max-width: 200px; text-align: center;"><span class="edgeLabel"><p>uses</p></span></div></foreignObject></g></g><g class="edgeLabel" transform="translate(1459.1015625, 323)"><g class="label" data-id="id_InTopLevelSuspendTransaction_VirtualThreadDispatcher_3" transform="translate(-48.8203125, -12)"><foreignObject width="97.640625" height="24"><div xmlns="http://www.w3.org/1999/xhtml" class="labelBkg" style="display: table-cell; white-space: nowrap; line-height: 1.5; max-width: 200px; text-align: center;"><span class="edgeLabel"><p>dispatches on</p></span></div></foreignObject></g></g><g class="edgeLabel" transform="translate(1838.390625, 323)"><g class="label" data-id="id_RunSuspendVT_VirtualThreadDispatcher_4" transform="translate(-37.3203125, -12)"><foreignObject width="74.640625" height="24"><div xmlns="http://www.w3.org/1999/xhtml" class="labelBkg" style="display: table-cell; white-space: nowrap; line-height: 1.5; max-width: 200px; text-align: center;"><span class="edgeLabel"><p>wraps test</p></span></div></foreignObject></g></g></g><g class="nodes"><g class="node default" id="my-svg-classId-CoroutineDispatcher-0" data-look="classic" transform="translate(693.546875, 190)"><g class="basic label-container outer-path"><path d="M-142.453125 -75 L142.453125 -75 L142.453125 75 L-142.453125 75" stroke="none" stroke-width="0" fill="#EAF7EF" style="fill:#EAF7EF;stroke:#58A978;color:#102033;stroke-width:1.5px"/><path d="M-142.453125 -75 C-81.9723663669016 -75, -21.491607733803193 -75, 142.453125 -75 M-142.453125 -75 C-49.68067424798477 -75, 43.09177650403046 -75, 142.453125 -75 M142.453125 -75 C142.453125 -15.079558580692606, 142.453125 44.84088283861479, 142.453125 75 M142.453125 -75 C142.453125 -22.857792235197955, 142.453125 29.28441552960409, 142.453125 75 M142.453125 75 C47.069347374201584 75, -48.31443025159683 75, -142.453125 75 M142.453125 75 C43.140837972510795 75, -56.17144905497841 75, -142.453125 75 M-142.453125 75 C-142.453125 22.268401061732867, -142.453125 -30.463197876534267, -142.453125 -75 M-142.453125 75 C-142.453125 42.47980959084572, -142.453125 9.959619181691437, -142.453125 -75" stroke="#58A978" stroke-width="1.5" fill="none" stroke-dasharray="0 0" style="fill:#EAF7EF;stroke:#58A978;color:#102033;stroke-width:1.5px"/></g><g class="annotation-group text" transform="translate(-37.90625, -51)"><g class="label" style="" transform="translate(0,-12)"><foreignObject width="75.8125" height="24"><div xmlns="http://www.w3.org/1999/xhtml" style="display: table-cell; white-space: nowrap; line-height: 1.5; max-width: 116px; text-align: center;"><span class="nodeLabel markdown-node-label" style="fill:#EAF7EF;stroke:#58A978;color:#102033;stroke-width:1.5px"><p>«abstract»</p></span></div></foreignObject></g></g><g class="label-group text" transform="translate(-76.890625, -27)"><g class="label" style="font-weight: bolder" transform="translate(0,-12)"><foreignObject width="153.78125" height="24"><div xmlns="http://www.w3.org/1999/xhtml" style="display: table-cell; white-space: nowrap; line-height: 1.5; max-width: 183px; text-align: center;"><span class="nodeLabel markdown-node-label" style="fill:#EAF7EF;stroke:#58A978;color:#102033;stroke-width:1.5px"><p>CoroutineDispatcher</p></span></div></foreignObject></g></g><g class="members-group text" transform="translate(-130.453125, 21)"/><g class="methods-group text" transform="translate(-130.453125, 51)"><g class="label" style="" transform="translate(0,-12)"><foreignObject width="184.015625" height="24"><div xmlns="http://www.w3.org/1999/xhtml" style="display: table-cell; white-space: nowrap; line-height: 1.5; max-width: 218px; text-align: center;"><span class="nodeLabel markdown-node-label" style="fill:#EAF7EF;stroke:#58A978;color:#102033;stroke-width:1.5px"><p>+dispatch(context, block)</p></span></div></foreignObject></g></g><g class="divider" style="fill:#EAF7EF;stroke:#58A978;color:#102033;stroke-width:1.5px"><path d="M-142.453125 -3 C-70.2859256376472 -2.9997466984337398, 1.8812737247056077 -2.9994933968674795, 142.453125 -2.999 M-142.453125 -3 C-55.039638526123184 -2.999693185086414, 32.37384794775363 -2.999386370172828, 142.453125 -2.999" stroke="#58A978" stroke-width="1.5" fill="none" stroke-dasharray="0 0" style="fill:#EAF7EF;stroke:#58A978;color:#102033;stroke-width:1.5px"/></g><g class="divider" style="fill:#EAF7EF;stroke:#58A978;color:#102033;stroke-width:1.5px"><path d="M-142.453125 21 C-39.809809331684534 21.000360270494834, 62.83350633663093 21.000720540989665, 142.453125 21.001 M-142.453125 21 C-65.58252595433507 21.0002698101535, 11.288073091329863 21.000539620307002, 142.453125 21.001" stroke="#58A978" stroke-width="1.5" fill="none" stroke-dasharray="0 0" style="fill:#EAF7EF;stroke:#58A978;color:#102033;stroke-width:1.5px"/></g></g><g class="node default" id="my-svg-classId-VirtualThreadDispatcher-1" data-look="classic" transform="translate(1049.61328125, 447)"><g class="basic label-container outer-path"><path d="M-172.77734375 -87 L172.77734375 -87 L172.77734375 87 L-172.77734375 87" stroke="none" stroke-width="0" fill="#F3EEFF" style="fill:#F3EEFF;stroke:#8B75D7;color:#102033;stroke-width:1.5px"/><path d="M-172.77734375 -87 C-66.49780771176438 -87, 39.78172832647124 -87, 172.77734375 -87 M-172.77734375 -87 C-82.22945362684742 -87, 8.318436496305168 -87, 172.77734375 -87 M172.77734375 -87 C172.77734375 -33.04980686392511, 172.77734375 20.900386272149774, 172.77734375 87 M172.77734375 -87 C172.77734375 -45.85958304865787, 172.77734375 -4.719166097315735, 172.77734375 87 M172.77734375 87 C93.05096001375797 87, 13.324576277515945 87, -172.77734375 87 M172.77734375 87 C44.200449866151075 87, -84.37644401769785 87, -172.77734375 87 M-172.77734375 87 C-172.77734375 41.683664546249105, -172.77734375 -3.6326709075017902, -172.77734375 -87 M-172.77734375 87 C-172.77734375 24.73514726458697, -172.77734375 -37.52970547082606, -172.77734375 -87" stroke="#8B75D7" stroke-width="1.5" fill="none" stroke-dasharray="0 0" style="fill:#F3EEFF;stroke:#8B75D7;color:#102033;stroke-width:1.5px"/></g><g class="annotation-group text" transform="translate(-48.3671875, -63)"><g class="label" style="" transform="translate(0,-12)"><foreignObject width="96.734375" height="24"><div xmlns="http://www.w3.org/1999/xhtml" style="display: table-cell; white-space: nowrap; line-height: 1.5; max-width: 136px; text-align: center;"><span class="nodeLabel markdown-node-label" style="fill:#F3EEFF;stroke:#8B75D7;color:#102033;stroke-width:1.5px"><p>«bluetape4k»</p></span></div></foreignObject></g></g><g class="label-group text" transform="translate(-91.6328125, -39)"><g class="label" style="font-weight: bolder" transform="translate(0,-12)"><foreignObject width="183.265625" height="24"><div xmlns="http://www.w3.org/1999/xhtml" style="display: table-cell; white-space: nowrap; line-height: 1.5; max-width: 209px; text-align: center;"><span class="nodeLabel markdown-node-label" style="fill:#F3EEFF;stroke:#8B75D7;color:#102033;stroke-width:1.5px"><p>VirtualThreadDispatcher</p></span></div></foreignObject></g></g><g class="members-group text" transform="translate(-160.77734375, 9)"/><g class="methods-group text" transform="translate(-160.77734375, 39)"><g class="label" style="" transform="translate(0,-12)"><foreignObject width="229.921875" height="24"><div xmlns="http://www.w3.org/1999/xhtml" style="display: table-cell; white-space: nowrap; line-height: 1.5; max-width: 268px; text-align: center;"><span class="nodeLabel markdown-node-label" style="fill:#F3EEFF;stroke:#8B75D7;color:#102033;stroke-width:1.5px"><p>+newVT() : CoroutineDispatcher</p></span></div></foreignObject></g><g class="label" style="" transform="translate(0,12)"><foreignObject width="184.015625" height="24"><div xmlns="http://www.w3.org/1999/xhtml" style="display: table-cell; white-space: nowrap; line-height: 1.5; max-width: 218px; text-align: center;"><span class="nodeLabel markdown-node-label" style="fill:#F3EEFF;stroke:#8B75D7;color:#102033;stroke-width:1.5px"><p>+dispatch(context, block)</p></span></div></foreignObject></g></g><g class="divider" style="fill:#F3EEFF;stroke:#8B75D7;color:#102033;stroke-width:1.5px"><path d="M-172.77734375 -15 C-59.37778941558838 -14.999671833262761, 54.02176491882324 -14.999343666525522, 172.77734375 -14.999 M-172.77734375 -15 C-73.44559233983227 -14.999712544048734, 25.886159070335452 -14.999425088097466, 172.77734375 -14.999" stroke="#8B75D7" stroke-width="1.5" fill="none" stroke-dasharray="0 0" style="fill:#F3EEFF;stroke:#8B75D7;color:#102033;stroke-width:1.5px"/></g><g class="divider" style="fill:#F3EEFF;stroke:#8B75D7;color:#102033;stroke-width:1.5px"><path d="M-172.77734375 9 C-76.18146274207912 9.000279538621532, 20.41441826584176 9.000559077243064, 172.77734375 9.001 M-172.77734375 9 C-34.95513278713932 9.000398843413064, 102.86707817572136 9.000797686826129, 172.77734375 9.001" stroke="#8B75D7" stroke-width="1.5" fill="none" stroke-dasharray="0 0" style="fill:#F3EEFF;stroke:#8B75D7;color:#102033;stroke-width:1.5px"/></g></g><g class="node default" id="my-svg-classId-R2dbcTransaction-2" data-look="classic" transform="translate(1049.61328125, 190)"><g class="basic label-container outer-path"><path d="M-163.61328125 -72 L163.61328125 -72 L163.61328125 72 L-163.61328125 72" stroke="none" stroke-width="0" fill="#E8F3FF" style="fill:#E8F3FF;stroke:#5B8DEF;color:#102033;stroke-width:1.5px"/><path d="M-163.61328125 -72 C-74.4376326105934 -72, 14.738016028813206 -72, 163.61328125 -72 M-163.61328125 -72 C-46.3963667496014 -72, 70.8205477507972 -72, 163.61328125 -72 M163.61328125 -72 C163.61328125 -18.13219578520257, 163.61328125 35.73560842959486, 163.61328125 72 M163.61328125 -72 C163.61328125 -27.400795077988654, 163.61328125 17.19840984402269, 163.61328125 72 M163.61328125 72 C71.1705061589433 72, -21.272268932113406 72, -163.61328125 72 M163.61328125 72 C46.66567961528463 72, -70.28192201943074 72, -163.61328125 72 M-163.61328125 72 C-163.61328125 18.830739286842416, -163.61328125 -34.33852142631517, -163.61328125 -72 M-163.61328125 72 C-163.61328125 30.3033667678216, -163.61328125 -11.393266464356799, -163.61328125 -72" stroke="#5B8DEF" stroke-width="1.5" fill="none" stroke-dasharray="0 0" style="fill:#E8F3FF;stroke:#5B8DEF;color:#102033;stroke-width:1.5px"/></g><g class="annotation-group text" transform="translate(0, -48)"/><g class="label-group text" transform="translate(-65.8046875, -48)"><g class="label" style="font-weight: bolder" transform="translate(0,-12)"><foreignObject width="131.609375" height="24"><div xmlns="http://www.w3.org/1999/xhtml" style="display: table-cell; white-space: nowrap; line-height: 1.5; max-width: 167px; text-align: center;"><span class="nodeLabel markdown-node-label" style="fill:#E8F3FF;stroke:#5B8DEF;color:#102033;stroke-width:1.5px"><p>R2dbcTransaction</p></span></div></foreignObject></g></g><g class="members-group text" transform="translate(-151.61328125, 0)"><g class="label" style="" transform="translate(0,-12)"><foreignObject width="128.328125" height="24"><div xmlns="http://www.w3.org/1999/xhtml" style="display: table-cell; white-space: nowrap; line-height: 1.5; max-width: 171px; text-align: center;"><span class="nodeLabel markdown-node-label" style="fill:#E8F3FF;stroke:#5B8DEF;color:#102033;stroke-width:1.5px"><p>+maxAttempts Int</p></span></div></foreignObject></g></g><g class="methods-group text" transform="translate(-151.61328125, 48)"><g class="label" style="" transform="translate(0,-12)"><foreignObject width="237.421875" height="24"><div xmlns="http://www.w3.org/1999/xhtml" style="display: table-cell; white-space: nowrap; line-height: 1.5; max-width: 272px; text-align: center;"><span class="nodeLabel markdown-node-label" style="fill:#E8F3FF;stroke:#5B8DEF;color:#102033;stroke-width:1.5px"><p>+virtualThreadTransaction(block)</p></span></div></foreignObject></g></g><g class="divider" style="fill:#E8F3FF;stroke:#5B8DEF;color:#102033;stroke-width:1.5px"><path d="M-163.61328125 -24 C-84.59897881849466 -23.999758533348185, -5.584676386989315 -23.99951706669637, 163.61328125 -23.999 M-163.61328125 -24 C-81.35172568115831 -23.999748609786014, 0.9098298876833724 -23.999497219572028, 163.61328125 -23.999" stroke="#5B8DEF" stroke-width="1.5" fill="none" stroke-dasharray="0 0" style="fill:#E8F3FF;stroke:#5B8DEF;color:#102033;stroke-width:1.5px"/></g><g class="divider" style="fill:#E8F3FF;stroke:#5B8DEF;color:#102033;stroke-width:1.5px"><path d="M-163.61328125 24 C-46.7612767350486 24.000357098163494, 70.0907277799028 24.00071419632699, 163.61328125 24.001 M-163.61328125 24 C-91.29940826234557 24.000220990229018, -18.98553527469113 24.000441980458035, 163.61328125 24.001" stroke="#5B8DEF" stroke-width="1.5" fill="none" stroke-dasharray="0 0" style="fill:#E8F3FF;stroke:#5B8DEF;color:#102033;stroke-width:1.5px"/></g></g><g class="node default" id="my-svg-classId-InTopLevelSuspendTransaction-3" data-look="classic" transform="translate(1459.1015625, 190)"><g class="basic label-container outer-path"><path d="M-195.875 -96 L195.875 -96 L195.875 96 L-195.875 96" stroke="none" stroke-width="0" fill="#E8F3FF" style="fill:#E8F3FF;stroke:#5B8DEF;color:#102033;stroke-width:1.5px"/><path d="M-195.875 -96 C-65.85930205519486 -96, 64.15639588961028 -96, 195.875 -96 M-195.875 -96 C-95.93812901262862 -96, 3.9987419747427566 -96, 195.875 -96 M195.875 -96 C195.875 -21.695093524422788, 195.875 52.609812951154424, 195.875 96 M195.875 -96 C195.875 -53.808394156025344, 195.875 -11.616788312050687, 195.875 96 M195.875 96 C40.92392489317791 96, -114.02715021364418 96, -195.875 96 M195.875 96 C89.92740159997307 96, -16.020196800053867 96, -195.875 96 M-195.875 96 C-195.875 52.50759508413733, -195.875 9.015190168274657, -195.875 -96 M-195.875 96 C-195.875 34.69838186524099, -195.875 -26.60323626951802, -195.875 -96" stroke="#5B8DEF" stroke-width="1.5" fill="none" stroke-dasharray="0 0" style="fill:#E8F3FF;stroke:#5B8DEF;color:#102033;stroke-width:1.5px"/></g><g class="annotation-group text" transform="translate(-51, -72)"><g class="label" style="" transform="translate(0,-12)"><foreignObject width="102" height="24"><div xmlns="http://www.w3.org/1999/xhtml" style="display: table-cell; white-space: nowrap; line-height: 1.5; max-width: 143px; text-align: center;"><span class="nodeLabel markdown-node-label" style="fill:#E8F3FF;stroke:#5B8DEF;color:#102033;stroke-width:1.5px"><p>«suspend fun»</p></span></div></foreignObject></g></g><g class="label-group text" transform="translate(-113.921875, -48)"><g class="label" style="font-weight: bolder" transform="translate(0,-12)"><foreignObject width="227.84375" height="24"><div xmlns="http://www.w3.org/1999/xhtml" style="display: table-cell; white-space: nowrap; line-height: 1.5; max-width: 254px; text-align: center;"><span class="nodeLabel markdown-node-label" style="fill:#E8F3FF;stroke:#5B8DEF;color:#102033;stroke-width:1.5px"><p>InTopLevelSuspendTransaction</p></span></div></foreignObject></g></g><g class="members-group text" transform="translate(-183.875, 0)"><g class="label" style="" transform="translate(0,-12)"><foreignObject width="139.984375" height="24"><div xmlns="http://www.w3.org/1999/xhtml" style="display: table-cell; white-space: nowrap; line-height: 1.5; max-width: 184px; text-align: center;"><span class="nodeLabel markdown-node-label" style="fill:#E8F3FF;stroke:#5B8DEF;color:#102033;stroke-width:1.5px"><p>+db R2dbcDatabase</p></span></div></foreignObject></g><g class="label" style="" transform="translate(0,12)"><foreignObject width="253.828125" height="24"><div xmlns="http://www.w3.org/1999/xhtml" style="display: table-cell; white-space: nowrap; line-height: 1.5; max-width: 286px; text-align: center;"><span class="nodeLabel markdown-node-label" style="fill:#E8F3FF;stroke:#5B8DEF;color:#102033;stroke-width:1.5px"><p>+transactionIsolation IsolationLevel</p></span></div></foreignObject></g><g class="label" style="" transform="translate(0,36)"><foreignObject width="186.625" height="24"><div xmlns="http://www.w3.org/1999/xhtml" style="display: table-cell; white-space: nowrap; line-height: 1.5; max-width: 220px; text-align: center;"><span class="nodeLabel markdown-node-label" style="fill:#E8F3FF;stroke:#5B8DEF;color:#102033;stroke-width:1.5px"><p>+statement suspend block</p></span></div></foreignObject></g></g><g class="methods-group text" transform="translate(-183.875, 96)"/><g class="divider" style="fill:#E8F3FF;stroke:#5B8DEF;color:#102033;stroke-width:1.5px"><path d="M-195.875 -24 C-105.87702527788099 -23.99977026681628, -15.879050555761978 -23.999540533632562, 195.875 -23.999 M-195.875 -24 C-44.7303446698449 -23.99961418084153, 106.4143106603102 -23.999228361683063, 195.875 -23.999" stroke="#5B8DEF" stroke-width="1.5" fill="none" stroke-dasharray="0 0" style="fill:#E8F3FF;stroke:#5B8DEF;color:#102033;stroke-width:1.5px"/></g><g class="divider" style="fill:#E8F3FF;stroke:#5B8DEF;color:#102033;stroke-width:1.5px"><path d="M-195.875 72 C-71.4489414359661 72.00031761597592, 52.97711712806779 72.00063523195183, 195.875 72.001 M-195.875 72 C-95.77892426392759 72.00025551008484, 4.317151472144815 72.00051102016968, 195.875 72.001" stroke="#5B8DEF" stroke-width="1.5" fill="none" stroke-dasharray="0 0" style="fill:#E8F3FF;stroke:#5B8DEF;color:#102033;stroke-width:1.5px"/></g></g><g class="node default" id="my-svg-classId-RunSuspendVT-4" data-look="classic" transform="translate(1838.390625, 190)"><g class="basic label-container outer-path"><path d="M-133.4140625 -75 L133.4140625 -75 L133.4140625 75 L-133.4140625 75" stroke="none" stroke-width="0" fill="#FFF0E6" style="fill:#FFF0E6;stroke:#E08A4A;color:#102033;stroke-width:1.5px"/><path d="M-133.4140625 -75 C-55.55201631669401 -75, 22.310029866611984 -75, 133.4140625 -75 M-133.4140625 -75 C-38.096556997694776 -75, 57.22094850461045 -75, 133.4140625 -75 M133.4140625 -75 C133.4140625 -33.466939438374084, 133.4140625 8.066121123251833, 133.4140625 75 M133.4140625 -75 C133.4140625 -32.07958751202791, 133.4140625 10.840824975944173, 133.4140625 75 M133.4140625 75 C38.590977899161516 75, -56.23210670167697 75, -133.4140625 75 M133.4140625 75 C37.39620397799918 75, -58.62165454400164 75, -133.4140625 75 M-133.4140625 75 C-133.4140625 42.48808767235431, -133.4140625 9.976175344708622, -133.4140625 -75 M-133.4140625 75 C-133.4140625 40.29110986719301, -133.4140625 5.582219734386015, -133.4140625 -75" stroke="#E08A4A" stroke-width="1.5" fill="none" stroke-dasharray="0 0" style="fill:#FFF0E6;stroke:#E08A4A;color:#102033;stroke-width:1.5px"/></g><g class="annotation-group text" transform="translate(-68.28125, -51)"><g class="label" style="" transform="translate(0,-12)"><foreignObject width="136.5625" height="24"><div xmlns="http://www.w3.org/1999/xhtml" style="display: table-cell; white-space: nowrap; line-height: 1.5; max-width: 174px; text-align: center;"><span class="nodeLabel markdown-node-label" style="fill:#FFF0E6;stroke:#E08A4A;color:#102033;stroke-width:1.5px"><p>«JUnit5 extension»</p></span></div></foreignObject></g></g><g class="label-group text" transform="translate(-55.09375, -27)"><g class="label" style="font-weight: bolder" transform="translate(0,-12)"><foreignObject width="110.1875" height="24"><div xmlns="http://www.w3.org/1999/xhtml" style="display: table-cell; white-space: nowrap; line-height: 1.5; max-width: 152px; text-align: center;"><span class="nodeLabel markdown-node-label" style="fill:#FFF0E6;stroke:#E08A4A;color:#102033;stroke-width:1.5px"><p>RunSuspendVT</p></span></div></foreignObject></g></g><g class="members-group text" transform="translate(-121.4140625, 21)"/><g class="methods-group text" transform="translate(-121.4140625, 51)"><g class="label" style="" transform="translate(0,-12)"><foreignObject width="174.546875" height="24"><div xmlns="http://www.w3.org/1999/xhtml" style="display: table-cell; white-space: nowrap; line-height: 1.5; max-width: 215px; text-align: center;"><span class="nodeLabel markdown-node-label" style="fill:#FFF0E6;stroke:#E08A4A;color:#102033;stroke-width:1.5px"><p>+invoke(testBody) : Unit</p></span></div></foreignObject></g></g><g class="divider" style="fill:#FFF0E6;stroke:#E08A4A;color:#102033;stroke-width:1.5px"><path d="M-133.4140625 -3 C-71.21774247851624 -2.999766904931699, -9.021422457032486 -2.999533809863398, 133.4140625 -2.999 M-133.4140625 -3 C-51.09580367711531 -2.999691493320568, 31.222455145769374 -2.9993829866411357, 133.4140625 -2.999" stroke="#E08A4A" stroke-width="1.5" fill="none" stroke-dasharray="0 0" style="fill:#FFF0E6;stroke:#E08A4A;color:#102033;stroke-width:1.5px"/></g><g class="divider" style="fill:#FFF0E6;stroke:#E08A4A;color:#102033;stroke-width:1.5px"><path d="M-133.4140625 21 C-35.56012313212986 21.000366730228937, 62.29381623574028 21.000733460457873, 133.4140625 21.001 M-133.4140625 21 C-71.37271188643872 21.00023251428467, -9.331361272877444 21.000465028569337, 133.4140625 21.001" stroke="#E08A4A" stroke-width="1.5" fill="none" stroke-dasharray="0 0" style="fill:#FFF0E6;stroke:#E08A4A;color:#102033;stroke-width:1.5px"/></g></g><g class="node undefined" id="my-svg-note0" data-look="classic" transform="translate(254.546875, 190)"><g class="basic label-container outer-path"><path d="M-246.546875 -18 L246.546875 -18 L246.546875 18 L-246.546875 18" stroke="none" stroke-width="0" fill="#fff5ad" style="fill:#fff5ad !important;stroke:hsl(52.6829268293, 60%, 73.9215686275%) !important"/><path d="M-246.546875 -18 C-85.22189906058281 -18, 76.10307687883437 -18, 246.546875 -18 M-246.546875 -18 C-87.70406520135572 -18, 71.13874459728856 -18, 246.546875 -18 M246.546875 -18 C246.546875 -8.283883891864491, 246.546875 1.432232216271018, 246.546875 18 M246.546875 -18 C246.546875 -3.6519934588878424, 246.546875 10.696013082224315, 246.546875 18 M246.546875 18 C113.84333011142618 18, -18.860214777147633 18, -246.546875 18 M246.546875 18 C71.05746715011384 18, -104.43194069977233 18, -246.546875 18 M-246.546875 18 C-246.546875 6.3232320075628135, -246.546875 -5.353535984874373, -246.546875 -18 M-246.546875 18 C-246.546875 8.420039266911997, -246.546875 -1.1599214661760051, -246.546875 -18" stroke="hsl(52.6829268293, 60%, 73.9215686275%)" stroke-width="1.3" fill="none" stroke-dasharray="0 0" style="fill:#fff5ad !important;stroke:hsl(52.6829268293, 60%, 73.9215686275%) !important"/></g><g class="label noteLabel" style="text-align:left !important;white-space:nowrap !important" transform="translate(-240.546875, -12)"><rect/><foreignObject width="481.09375" height="24"><div style="text-align: center; white-space: break-spaces; display: table; line-height: 1.5; max-width: 200px; width: 200px;" xmlns="http://www.w3.org/1999/xhtml"><span style="text-align:left !important;white-space:nowrap !important" class="nodeLabel markdown-node-label"><p>Created via Dispatchers.newVT()\nBased on JDK 21 Virtual Threads</p></span></div></foreignObject></g></g><g class="node undefined" id="my-svg-note1" data-look="classic" transform="translate(1838.390625, 26)"><g class="basic label-container outer-path"><path d="M-187.0234375 -18 L187.0234375 -18 L187.0234375 18 L-187.0234375 18" stroke="none" stroke-width="0" fill="#fff5ad" style="fill:#fff5ad !important;stroke:hsl(52.6829268293, 60%, 73.9215686275%) !important"/><path d="M-187.0234375 -18 C-90.79572169826588 -18, 5.4319941034682415 -18, 187.0234375 -18 M-187.0234375 -18 C-106.32174740888146 -18, -25.620057317762928 -18, 187.0234375 -18 M187.0234375 -18 C187.0234375 -7.546089816943898, 187.0234375 2.9078203661122046, 187.0234375 18 M187.0234375 -18 C187.0234375 -8.879491680455795, 187.0234375 0.24101663908841076, 187.0234375 18 M187.0234375 18 C84.43015001004866 18, -18.163137479902673 18, -187.0234375 18 M187.0234375 18 C56.67673693400289 18, -73.66996363199422 18, -187.0234375 18 M-187.0234375 18 C-187.0234375 5.644204697606545, -187.0234375 -6.71159060478691, -187.0234375 -18 M-187.0234375 18 C-187.0234375 8.61436837654092, -187.0234375 -0.77126324691816, -187.0234375 -18" stroke="hsl(52.6829268293, 60%, 73.9215686275%)" stroke-width="1.3" fill="none" stroke-dasharray="0 0" style="fill:#fff5ad !important;stroke:hsl(52.6829268293, 60%, 73.9215686275%) !important"/></g><g class="label noteLabel" style="text-align:left !important;white-space:nowrap !important" transform="translate(-181.0234375, -12)"><rect/><foreignObject width="362.046875" height="24"><div style="text-align: center; white-space: break-spaces; display: table; line-height: 1.5; max-width: 200px; width: 200px;" xmlns="http://www.w3.org/1999/xhtml"><span style="text-align:left !important;white-space:nowrap !important" class="nodeLabel markdown-node-label"><p>Used together with at EnabledOnJre(JRE.JAVA_21)</p></span></div></foreignObject></g></g></g></g></g><defs><filter id="my-svg-drop-shadow" height="130%" width="130%"><feDropShadow dx="4" dy="4" stdDeviation="0" flood-opacity="0.06" flood-color="#000000"/></filter></defs><defs><filter id="my-svg-drop-shadow-small" height="150%" width="150%"><feDropShadow dx="2" dy="2" stdDeviation="0" flood-opacity="0.06" flood-color="#000000"/></filter></defs><linearGradient id="my-svg-gradient" gradientUnits="objectBoundingBox" x1="0%" y1="0%" x2="100%" y2="0%"><stop offset="0%" stop-color="#5B8DEF" stop-opacity="1"/><stop offset="100%" stop-color="#58A978" stop-opacity="1"/></linearGradient></svg>